<svg viewBox="130.65944055944055 589.8321684 190.6008511888112 66.218625" xmlns="http://www.w3.org/2000/svg" data-name="Layer 1" id="Layer_1" style="max-height: 500px" width="190.6008511888112" height="66.218625"><defs><style>.cls-1{fill:#981d97;}.cls-2{fill:#fff;}.cls-3{fill:#84388d;}.cls-4{fill:#941fa3;}</style></defs><g id="Circunferência"><path transform="translate(-1)" d="M49,368.6a2.57,2.57,0,0,0,3.2-1.8A643.62,643.62,0,0,1,279.7,26.5c9-7,18.2-13.7,27.6-20.2V0c-10.4,7.2-20.7,14.6-30.8,22.4A651.48,651.48,0,0,0,134.6,174.1,643.83,643.83,0,0,0,47.2,365.4,2.65,2.65,0,0,0,49,368.6Z" class="cls-1"/><path transform="translate(-1)" d="M307.3,1063.8c-9.9-6.9-19.6-14-29.2-21.5a644,644,0,0,1-227-343,2.6,2.6,0,0,0-5,1.4,649.08,649.08,0,0,0,228.8,345.8q15.9,12.3,32.4,23.7Z" class="cls-1"/></g><path transform="translate(-1)" d="M117.2,579a1.81,1.81,0,0,1-1.6,2h-6.4a1.77,1.77,0,0,1-1.9-2V464.5a1.69,1.69,0,0,1,1.4-1.9h6.4c1.3,0,2,.6,2,1.9C117.2,464.5,117.2,579,117.2,579Z" class="cls-2"/><path transform="translate(-1)" d="M154.7,480a1.81,1.81,0,0,1-1.6,2h-6.4a1.77,1.77,0,0,1-1.9-2V466c0-1.3.6-2,1.9-2h5.9a1.81,1.81,0,0,1,2,1.6V480Zm0,99a1.81,1.81,0,0,1-1.6,2h-6.4a1.77,1.77,0,0,1-1.9-2V496.7c0-1.4.6-2.2,1.9-2.2h5.9c1.3,0,2,.7,2,2.2V579Z" class="cls-2"/><path transform="translate(-1)" d="M218.5,494.4c1.2,0,1.9.7,1.9,2.2v4.8c0,1.3-.6,2-1.9,2H196.9V579c0,1.3-.6,2-1.9,2h-5.9a1.81,1.81,0,0,1-2-1.6V503.3H174.3a1.81,1.81,0,0,1-2-1.6v-5.3c0-1.4.7-2.2,2-2.2h12.8v-8.7c0-7.9,1.9-13.9,5.6-17.9s9.2-6.2,16.5-6.2a32.2,32.2,0,0,1,11.1,1.7,1.88,1.88,0,0,1,1.3,2l-.1,4.5c0,1.4-.7,1.9-2,1.6a35.28,35.28,0,0,0-9.1-1c-9,0-13.5,5.3-13.5,15.7v8.5Z" class="cls-2"/><path transform="translate(-1)" d="M296.4,568.8c1.2-.7,2.2-.2,2.9,1.2l1.7,4.4c.4,1-.1,1.8-1.3,2.4a54.6,54.6,0,0,1-26.9,6.2c-13.4,0-23.8-4.1-31.3-12.1s-11.2-19.1-11.2-33.2c0-14.5,3.5-25.6,10.3-33.5s16.4-12,28.6-12c11.8,0,20.9,3.7,27.4,11.2s9.7,17.3,9.7,29.6v6.9c0,1.3-.7,2-2.2,2H240c.5,9.9,3.6,17.8,9.3,23.5s13.7,8.7,23.9,8.7a42.68,42.68,0,0,0,23.2-5.3M240,533.9h56.4v-1.3c0-9.6-2.3-17.2-6.9-22.9s-11.5-8.6-20.4-8.6c-18.5-.1-28.1,10.8-29.1,32.8" class="cls-2"/><path transform="translate(-1)" d="M16.4,439.2v5.3c0,5.1,2.4,8.1,6.3,10.5L44,467.4l21.6-12.5a11.19,11.19,0,0,0,5.9-10.4v-5.3a1.16,1.16,0,0,0-1.2-1.2,1.27,1.27,0,0,0-.6.1L44.1,451.4,18,438.1c-.1-.1-.4-.1-.5-.1a1.13,1.13,0,0,0-1.1,1.2" class="cls-3"/><path transform="translate(-1)" d="M69.6,481.1a3,3,0,0,0-3,3v60c0,12.7-4.2,19.7-22.6,19.7s-22.6-7.1-22.6-19.7v-49a14.22,14.22,0,0,0-10.2-13.5,13.2,13.2,0,0,0-3.9-.6H4a3,3,0,0,0-3,3v60c0,24.7,13.4,39.1,42.8,39.1H44c29.5-.1,42.8-14.3,42.8-39.1V495a14.08,14.08,0,0,0-14.1-14.1Z" class="cls-3"/><path transform="translate(-1)" d="M16.9,439.2v5.3A11.32,11.32,0,0,0,23.4,455l21.2,12.3,21.6-12.4a10.78,10.78,0,0,0,5.6-10.4v-5.1a1.16,1.16,0,0,0-1.2-1.2,1.27,1.27,0,0,0-.6.1L44.7,451.4,18.7,438h-.6a1.29,1.29,0,0,0-1.2,1.2" class="cls-4"/><path transform="translate(-1)" d="M70,481a3,3,0,0,0-3,3h0v59.9c0,12.7-4.2,19.6-22.6,19.7s-22.6-7.1-22.6-19.7v-49a14.13,14.13,0,0,0-10.2-13.4,28.68,28.68,0,0,0-4.1-.5H4.3a3,3,0,0,0-3,3v59.9c0,24.6,13.3,38.7,42.7,39h.2c29.4,0,42.7-14.3,42.7-39V495.1A14.08,14.08,0,0,0,72.8,481H70Z" class="cls-4"/><path transform="translate(-1)" d="M167.28,620.91v2.32l1.26-3.49C168.13,620.13,167.71,620.5,167.28,620.91Z" class="cls-2"/><path transform="translate(-1)" d="M163.14,620.69v-.83l-.5,1.34Z" class="cls-2"/><path transform="translate(-1)" d="M157.94,629.91a.87.87,0,0,1-.68-.42,1.82,1.82,0,0,1-.29-1,2.78,2.78,0,0,1,.07-.57,4,4,0,0,1,.19-.68l1.18-3.11c-.32.35-.63.71-.93,1s-.61.56-.88.77h0v-3.63c1.27-1.35,2.34-2.54,3.2-3.51a10.63,10.63,0,0,0,1.38-1.75l.89-2.43h1.07V613.1c0-.11-.09-.31-.09-.42a5.12,5.12,0,0,1,.2-1.5,1.87,1.87,0,0,1,.89-.91v-5.15H153.77v5.14a2.59,2.59,0,0,1,.91,1.11,7.63,7.63,0,0,1,.2,1.72V626.4a2.28,2.28,0,0,1-.5,1.4,1.87,1.87,0,0,1-1.43.52,1.69,1.69,0,0,1-1.83-1.92V612.68a5.44,5.44,0,0,1,.22-1.61,1.92,1.92,0,0,1,.81-.81v-5.14H141.26l-.1,5.14a1.79,1.79,0,0,1,.91,1,5.62,5.62,0,0,1,.2,1.52v12.11a16.47,16.47,0,0,0,.5,4.14,5.7,5.7,0,0,0,1.52,2.73,8.76,8.76,0,0,0,2.61,1.9,8.05,8.05,0,0,0,1.91.62,16.9,16.9,0,0,0,2.22.3h1.62a14.46,14.46,0,0,0,5.73-.92,7.21,7.21,0,0,0,3.85-3.71,13.33,13.33,0,0,0,.91-4.84l-.95,1C159.91,628.68,158.5,629.91,157.94,629.91Z" class="cls-2"/><path transform="translate(-1)" d="M188.24,610.26a6.6,6.6,0,0,0-2-3.31,6.12,6.12,0,0,0-2.94-1.52,26,26,0,0,0-4.23-.31h-12.7v5.14a1.6,1.6,0,0,1,.8,1c0,.41.11,1,.11,1.62v3.89c.45-.39.86-.71,1.23-1a6.22,6.22,0,0,1,3.23-1.6,1.27,1.27,0,0,1,.91.35,1.13,1.13,0,0,1,.39.85,5.46,5.46,0,0,1-.45,1.59c-.1.29-.18.51-.24.67l-2.29,6.3c-.07.23-.16.47-.26.74a4.37,4.37,0,0,0-.16.41.78.78,0,0,0,0,.34.12.12,0,0,0,.12.11c.2,0,1.87-1.58,2.84-2.34v3.4a10.67,10.67,0,0,1-2.26,2.14,6.26,6.26,0,0,1-3,1.12,1.76,1.76,0,0,1-1-.26V634h10.89v-5.05a1.49,1.49,0,0,1-.78-1c0-.31-.2-.92-.2-1.61,0-.11.09-.4.09-.61h3.44c3,0,5.23-.72,6.64-1.92a5.69,5.69,0,0,0,1.62-2.62,18.07,18.07,0,0,0,.71-3.73v-2.63A19.14,19.14,0,0,0,188.24,610.26Zm-8.54,6a8.24,8.24,0,0,1-.2,1.92,1.6,1.6,0,0,1-.5,1,1.92,1.92,0,0,1-1.22.4l-.5.11c-.2,0-.52-.11-.91-.11v-8.46h.6c1.83,0,2.73,1.11,2.73,3.12Z" class="cls-2"/><path transform="translate(-1)" d="M157.28,627.19h0m12.41-1.87a.74.74,0,0,1,0-.21,0,0,0,0,1,0-.05.7.7,0,0,1,.06-.17l.1-.25,0-.06c.09-.24.17-.45.24-.67h0l2.28-6.28c0-.11.09-.26.16-.44l.08-.23h0a2,2,0,0,0,.11-.31l.1-.28a3.56,3.56,0,0,0,.23-1h0A1,1,0,0,0,173,615h0a.08.08,0,0,0,0-.06,1.54,1.54,0,0,0-.23-.29h0a1.11,1.11,0,0,0-.39-.24,1,1,0,0,0-.43-.09,3.11,3.11,0,0,0-1.33.39l-.26.14a13.15,13.15,0,0,0-1.57,1.07h0c-.19.15-.4.31-.61.49s-.45.36-.68.58c-1.23,1.06-2.75,2.52-4.56,4.35a.13.13,0,0,1-.18,0,.12.12,0,0,1,0-.13l2.45-6.51h-2.82l-.86,2.35h0a.54.54,0,0,1-.07.13l-.1.15a19.25,19.25,0,0,1-1.24,1.51c-.43.49-.91,1-1.44,1.62s-1.1,1.16-1.73,1.82v3.33l.23-.2.46-.4h0l.45-.46c.16-.16.31-.35.47-.52a.13.13,0,0,1,.18,0,.12.12,0,0,1,0,.14l-1.17,3.11h0l0,.1,0,.1c0,.15-.08.3-.11.46h0a2.93,2.93,0,0,0-.05.29,1,1,0,0,0,0,.25,2,2,0,0,0,0,.54l0,.08a1.26,1.26,0,0,0,.17.35h0l.07.09.08.09a.64.64,0,0,0,.43.18,1,1,0,0,0,.43-.16,4.56,4.56,0,0,0,.39-.27,27.89,27.89,0,0,0,3.33-3.28q1.71-1.89,3.3-3.5c1.07-1.07,2.09-2.05,3.07-2.93a.13.13,0,0,1,.18,0h0a.12.12,0,0,1,0,.13l-2.18,6c-.13.35-.23.65-.32.9s-.14.45-.19.68h0a1,1,0,0,1,0,.14s0,.09,0,.13a3.68,3.68,0,0,0-.06.66,1.37,1.37,0,0,0,.1.57l0,.08a1.22,1.22,0,0,0,.27.36h0l.12.09h0a.57.57,0,0,0,.13.08,1.71,1.71,0,0,0,.83.19,3.76,3.76,0,0,0,1.33-.27l.25-.1a9.41,9.41,0,0,0,1.41-.73,12.58,12.58,0,0,0,1.22-1,8.28,8.28,0,0,0,1-1.06v-3.1m-1.46.91c.51-.44,1.07-.93,1.5-1.26a.13.13,0,0,1,.08,0,.13.13,0,0,1,.13.12v3.41a.09.09,0,0,1,0,.07,7.23,7.23,0,0,1-1.07,1.14,13.33,13.33,0,0,1-1.24,1h0a10.74,10.74,0,0,1-1.42.76l-.26.1a4.38,4.38,0,0,1-1.43.28h0a1.84,1.84,0,0,1-.94-.23l-.15-.09-.14-.11h0a1.51,1.51,0,0,1-.32-.43.3.3,0,0,1,0-.1,1.65,1.65,0,0,1-.12-.66,3.36,3.36,0,0,1,.08-.71.4.4,0,0,1,0-.15l0-.14h0a7,7,0,0,1,.19-.69c.09-.27.19-.58.32-.92l2-5.55c-.85.79-1.75,1.65-2.68,2.58s-2.15,2.23-3.29,3.5a29.27,29.27,0,0,1-3.37,3.31,3.62,3.62,0,0,1-.41.27,1.12,1.12,0,0,1-.56.2h0a.83.83,0,0,1-.59-.25l-.09-.1-.09-.11h0a1.65,1.65,0,0,1-.21-.42h0a.15.15,0,0,0,0-.09,2.06,2.06,0,0,1-.08-.6,1.31,1.31,0,0,1,0-.28,1.87,1.87,0,0,1,.05-.3,4.1,4.1,0,0,1,.14-.5l0-.11a.23.23,0,0,1,0-.1h0l.94-2.49,0,0c-.16.17-.31.33-.46.47h0l-.46.41c-.15.13-.29.26-.43.36a.13.13,0,0,1-.08,0h0a.12.12,0,0,1-.12-.12h0v-3.62a.16.16,0,0,1,0-.09c.64-.68,1.22-1.31,1.76-1.9s1-1.13,1.42-1.61c.61-.71,1-1.19,1.22-1.49l.1-.14,0-.08h0l.88-2.42a.13.13,0,0,1,.11-.09h3.13a.11.11,0,0,1,.07.15h0l-2.3,6.14c1.64-1.67,3-3,4.17-4,.24-.21.46-.4.69-.58s.42-.36.62-.5a12.32,12.32,0,0,1,1.6-1.06l.27-.15a3.42,3.42,0,0,1,1.43-.41h0a1.39,1.39,0,0,1,.53.1,1.52,1.52,0,0,1,.46.3h0a1.31,1.31,0,0,1,.27.35l0,.08h0a1.12,1.12,0,0,1,.11.51h0a4,4,0,0,1-.23,1c0,.09-.07.18-.1.29s-.09.21-.12.31l-.08.23c-.06.17-.12.31-.16.44h0L170.33,624c-.06.22-.15.44-.24.68l0,.06-.1.25a.5.5,0,0,0-.05.13.54.54,0,0,0,0,.18.15.15,0,0,0,0,.09v0a16,16,0,0,0,1.27-1.07m1.45-.91c-.39.31-.86.71-1.29,1.1a6.36,6.36,0,0,1-1.45,1.11h0a.11.11,0,0,1-.08,0s0,0,0,0a.33.33,0,0,1-.1-.14Z" class="cls-2"/><path transform="translate(-1)" d="M266.77,634.56v-8.83h1.92v1.52h0a3.18,3.18,0,0,1,1-1.22,2.59,2.59,0,0,1,1.52-.46v2.21h-.37a1.78,1.78,0,0,0-.72.18,3.59,3.59,0,0,0-.63.45,2.82,2.82,0,0,0-.44.47.77.77,0,0,0-.16.31v5.37Zm-3.86,0-.13-.76a6.15,6.15,0,0,1-1.29.69,4.09,4.09,0,0,1-1.47.24,2.66,2.66,0,0,1-1-.19,2.09,2.09,0,0,1-.75-.53,2.17,2.17,0,0,1-.45-.74,2.4,2.4,0,0,1-.15-.88,2.63,2.63,0,0,1,1.24-2.34,9.07,9.07,0,0,1,3.82-1.13v-.74a.92.92,0,0,0-.35-.79,1.54,1.54,0,0,0-.93-.27,1.94,1.94,0,0,0-1.19.33,3.38,3.38,0,0,0-.75.76l-1.36-1a2.5,2.5,0,0,1,.56-.65,3.85,3.85,0,0,1,.81-.52,4,4,0,0,1,.95-.36,3.59,3.59,0,0,1,1-.1,6.06,6.06,0,0,1,1.53.2,2.31,2.31,0,0,1,1.68,1.7,5.91,5.91,0,0,1,.19,1.67v4.19a4.92,4.92,0,0,0,0,.67,2.66,2.66,0,0,0,.13.61Zm-.22-4.23-1.06.22a5.41,5.41,0,0,0-1,.32,1.85,1.85,0,0,0-.68.5,1.13,1.13,0,0,0-.27.77,1,1,0,0,0,.29.76,1,1,0,0,0,.73.27,1.6,1.6,0,0,0,.53-.09,3.54,3.54,0,0,0,.53-.23,3,3,0,0,0,.48-.31l.4-.3Zm-6.46-4.6v8.83h-1.94v-.95a12.53,12.53,0,0,1-1.27.76,3,3,0,0,1-1.45.36,2.35,2.35,0,0,1-2-.8,3.33,3.33,0,0,1-.65-2.16v-6h2.11v5.75a2,2,0,0,0,.27,1.23,1,1,0,0,0,.82.33,2.14,2.14,0,0,0,1.2-.31,3.81,3.81,0,0,0,.77-.62v-6.37ZM247.68,627a6.27,6.27,0,0,0-.75,0,1.23,1.23,0,0,0-.61.18,2.49,2.49,0,0,1,.34.67,2.72,2.72,0,0,1,.14.89,3.25,3.25,0,0,1-.21,1.15,2.57,2.57,0,0,1-.65.91,2.78,2.78,0,0,1-1,.6,4.37,4.37,0,0,1-1.44.21,5.81,5.81,0,0,0-1.18.09c-.32,0-.47.21-.47.46s.14.39.43.47a5.42,5.42,0,0,0,1.07.16l1.38.09a5.1,5.1,0,0,1,1.4.26,2.54,2.54,0,0,1,1.07.69,1.89,1.89,0,0,1,.43,1.35,1.94,1.94,0,0,1-.25.94,2.52,2.52,0,0,1-.74.85,4.29,4.29,0,0,1-1.28.6,6.61,6.61,0,0,1-1.83.23,6.74,6.74,0,0,1-2.84-.53,1.68,1.68,0,0,1-1.07-1.58,1.56,1.56,0,0,1,.14-.71,1.56,1.56,0,0,1,.88-.82,1.63,1.63,0,0,1,.57-.1V634a2.71,2.71,0,0,0-.37-.21,2.3,2.3,0,0,1-.43-.25,1.22,1.22,0,0,1-.36-.39,1.06,1.06,0,0,1-.14-.58,1.15,1.15,0,0,1,.16-.6,2.45,2.45,0,0,1,.38-.47,3,3,0,0,1,.45-.35,1.93,1.93,0,0,1,.38-.19,4.76,4.76,0,0,1-.92-1,2.37,2.37,0,0,1-.39-1.36,3.11,3.11,0,0,1,.22-1.13,2.8,2.8,0,0,1,.67-1,3.33,3.33,0,0,1,1.07-.71,4.1,4.1,0,0,1,1.51-.26,3.36,3.36,0,0,1,1.17.21,3.06,3.06,0,0,1,1,.57,1.72,1.72,0,0,1,.8-.61,2.9,2.9,0,0,1,1.27-.17Zm-2.85,1.6a1.45,1.45,0,0,0-1.44-1.46,1.46,1.46,0,1,0,0,2.92,1.35,1.35,0,0,0,1-.42,1.39,1.39,0,0,0,.42-1M243,634.39a2.45,2.45,0,0,0-.71.11,1.92,1.92,0,0,0-.46.27.81.81,0,0,0-.25.33.85.85,0,0,0-.06.31.76.76,0,0,0,.51.75,4.74,4.74,0,0,0,1.83.24,2.78,2.78,0,0,0,.86-.11,2.2,2.2,0,0,0,.56-.26.94.94,0,0,0,.3-.33.56.56,0,0,0,.1-.29.61.61,0,0,0-.13-.32,1.17,1.17,0,0,0-.45-.34,3.38,3.38,0,0,0-.82-.25,6.09,6.09,0,0,0-1.28-.1m-4.93.16H236v-8.83h2.11ZM236,622.12h2.11v2H236Zm-5.54,3.61V622.8h2.11v2.93h1.73v1.7h-1.73v5a.54.54,0,0,0,.18.49,1.07,1.07,0,0,0,.58.12,2.72,2.72,0,0,0,.49,0,4.15,4.15,0,0,1,.48-.11v1.73l-.82.1a7.39,7.39,0,0,1-.84,0,2.19,2.19,0,0,1-1.67-.54,2.14,2.14,0,0,1-.5-1.49v-5.27H229.2v-1.7Zm-9.52,4.42a6.48,6.48,0,0,1,.26-1.91,4.24,4.24,0,0,1,.76-1.42,3.13,3.13,0,0,1,1.21-.92,4.2,4.2,0,0,1,3.23,0,3.19,3.19,0,0,1,1.2.92,4.07,4.07,0,0,1,.76,1.42,7,7,0,0,1,0,3.81,4.2,4.2,0,0,1-.76,1.43,3.36,3.36,0,0,1-1.2.91,4.2,4.2,0,0,1-3.23,0,3.39,3.39,0,0,1-1.21-.91,4.38,4.38,0,0,1-.76-1.43,6.46,6.46,0,0,1-.26-1.9m5.57,0a4.43,4.43,0,0,0-.42-2.2,1.59,1.59,0,0,0-2.19-.43,1.76,1.76,0,0,0-.43.43,5.95,5.95,0,0,0,0,4.39,1.58,1.58,0,0,0,2.19.42,1.44,1.44,0,0,0,.43-.42,4.41,4.41,0,0,0,.42-2.19m-15.21,4.41V622.29h4.49a7.11,7.11,0,0,1,1.78.22,3.49,3.49,0,0,1,1.37.66,2.88,2.88,0,0,1,.87,1.14,4,4,0,0,1,.3,1.64,4.09,4.09,0,0,1-.3,1.65,3,3,0,0,1-.87,1.14,3.72,3.72,0,0,1-1.36.65,6.67,6.67,0,0,1-1.78.21h-2.13v5Zm2.35-6.86h1.87a4.08,4.08,0,0,0,1.1-.12,1.65,1.65,0,0,0,.71-.36,1.26,1.26,0,0,0,.36-.55,2.78,2.78,0,0,0,0-1.46,1.26,1.26,0,0,0-.36-.55,1.77,1.77,0,0,0-.71-.36,4.08,4.08,0,0,0-1.1-.12h-1.87Zm86.83-15.22a3,3,0,0,0,.56,2,1.64,1.64,0,0,0,1.27.58,2,2,0,0,0,1.16-.29,4.48,4.48,0,0,0,.81-.76l1.54.95a3.64,3.64,0,0,1-1.53,1.38,5.12,5.12,0,0,1-2.18.43,3.72,3.72,0,0,1-1.55-.33,3.32,3.32,0,0,1-1.18-.92,4.36,4.36,0,0,1-.73-1.44,6.86,6.86,0,0,1,0-3.81,4,4,0,0,1,.76-1.44,3.19,3.19,0,0,1,1.2-.92,3.91,3.91,0,0,1,1.62-.32,3.25,3.25,0,0,1,1.53.33,3.29,3.29,0,0,1,1.13.89,4,4,0,0,1,.72,1.3,5.37,5.37,0,0,1,.23,1.54v.87Zm3.4-1.43a2.17,2.17,0,0,0-.49-1.42,1.71,1.71,0,0,0-2.41,0l0,0a2.22,2.22,0,0,0-.48,1.42Zm-7,5.52h-1.78l-.1-1a5.19,5.19,0,0,1-1.13.84,2.92,2.92,0,0,1-1.27.29,3.21,3.21,0,0,1-1.55-.36,3.13,3.13,0,0,1-1.1-1,4.62,4.62,0,0,1-.66-1.53,7.31,7.31,0,0,1-.22-1.92,5.77,5.77,0,0,1,.22-1.6,4.73,4.73,0,0,1,.68-1.39,3.54,3.54,0,0,1,1.12-1,3,3,0,0,1,1.51-.36,2.89,2.89,0,0,1,.58.08,4.76,4.76,0,0,1,.6.21,2.69,2.69,0,0,1,.55.31,1.9,1.9,0,0,1,.41.39h0v-4.29h2.11Zm-2.1-6.58a4.39,4.39,0,0,0-.71-.51,1.71,1.71,0,0,0-.91-.23,1.66,1.66,0,0,0-1.47.74,4.81,4.81,0,0,0,0,4.27,1.71,1.71,0,0,0,1.47.74,2.18,2.18,0,0,0,.57-.08,2.13,2.13,0,0,0,.75-.43,2.61,2.61,0,0,1,.31-.27Zm-9.16,6.58-.14-.78a6.33,6.33,0,0,1-1.28.69,4.33,4.33,0,0,1-1.47.25,2.64,2.64,0,0,1-1-.2,2.09,2.09,0,0,1-.75-.53,2.42,2.42,0,0,1-.44-.74,2.67,2.67,0,0,1-.15-.88,2.64,2.64,0,0,1,1.22-2.34,9,9,0,0,1,3.82-1.13v-.75a.93.93,0,0,0-.36-.78,1.47,1.47,0,0,0-.93-.27,1.85,1.85,0,0,0-1.18.33,3.34,3.34,0,0,0-.75.75l-1.36-1a2.1,2.1,0,0,1,.56-.66,4.57,4.57,0,0,1,.8-.52,5.38,5.38,0,0,1,.95-.34,3.59,3.59,0,0,1,1-.1,6.14,6.14,0,0,1,1.54.2,2.32,2.32,0,0,1,1.67,1.7,6.3,6.3,0,0,1,.19,1.67v4.16a3.71,3.71,0,0,0,0,.67,3.32,3.32,0,0,0,.13.61Zm-.23-4.24-1,.22a4.83,4.83,0,0,0-1,.32,1.88,1.88,0,0,0-.69.5,1.12,1.12,0,0,0-.26.76,1,1,0,0,0,.29.77,1,1,0,0,0,.73.27,1.6,1.6,0,0,0,.53-.09,3.43,3.43,0,0,0,.52-.23,3.66,3.66,0,0,0,.49-.31l.39-.3Zm-6.45,4.24h-1.78l-.1-1a5.13,5.13,0,0,1-1.12.84,3,3,0,0,1-1.28.29,3.21,3.21,0,0,1-1.55-.36,3.13,3.13,0,0,1-1.1-1,4.86,4.86,0,0,1-.67-1.53,8.26,8.26,0,0,1-.22-1.92,5.44,5.44,0,0,1,.24-1.6,4.47,4.47,0,0,1,.67-1.39,3.54,3.54,0,0,1,1.12-1,3,3,0,0,1,1.51-.36,2.89,2.89,0,0,1,.58.08,4.27,4.27,0,0,1,.6.21,2.29,2.29,0,0,1,.55.31,1.9,1.9,0,0,1,.41.39h0v-4.29h2.11ZM276.78,610a4.39,4.39,0,0,0-.71-.51,1.75,1.75,0,0,0-.92-.23,1.66,1.66,0,0,0-1.46.74,3.76,3.76,0,0,0-.5,2.13,3.81,3.81,0,0,0,.5,2.14,1.7,1.7,0,0,0,1.46.74,2.33,2.33,0,0,0,.59-.08,2.17,2.17,0,0,0,.41-.19,1.91,1.91,0,0,0,.32-.24,2.69,2.69,0,0,1,.32-.27Zm-7.56,6.58h-2.11v-8.85h2.11Zm-2.11-12.47h2.11v2h-2.11ZM263.64,610a5.08,5.08,0,0,0-.74-.64,1.53,1.53,0,0,0-.9-.29,1.46,1.46,0,0,0-.91.23.81.81,0,0,0-.28.63.72.72,0,0,0,.33.61,3.63,3.63,0,0,0,.81.41c.33.13.68.26,1.07.39a4.24,4.24,0,0,1,1.07.52,3.16,3.16,0,0,1,.82.85,2.45,2.45,0,0,1,.33,1.32,2.71,2.71,0,0,1-.25,1.19,2.34,2.34,0,0,1-.68.82,2.87,2.87,0,0,1-1,.5,5.11,5.11,0,0,1-1.29.15,3.83,3.83,0,0,1-1.91-.46,4.12,4.12,0,0,1-1.43-1.32l1.43-1.07a4.58,4.58,0,0,0,.87.89,1.93,1.93,0,0,0,1.18.38,1.47,1.47,0,0,0,.91-.28.88.88,0,0,0,.36-.72.72.72,0,0,0-.33-.61,3.74,3.74,0,0,0-.82-.42c-.32-.13-.68-.26-1.07-.4a5.65,5.65,0,0,1-1.07-.54,2.84,2.84,0,0,1-.81-.81,2.25,2.25,0,0,1-.33-1.26,2.47,2.47,0,0,1,.23-1.1,2.41,2.41,0,0,1,.65-.8,3.11,3.11,0,0,1,.93-.5,3.83,3.83,0,0,1,1.11-.17,4.35,4.35,0,0,1,1.71.34,3.5,3.5,0,0,1,1.4,1Zm-10.09,6.54v-8.85h1.94v1.51h0a3.33,3.33,0,0,1,1-1.21,2.61,2.61,0,0,1,1.53-.47v2.22h-.37a1.52,1.52,0,0,0-.75.19,3.39,3.39,0,0,0-.63.44,3.34,3.34,0,0,0-.44.48.65.65,0,0,0-.16.32v5.38Zm-6.94-4.09a3.15,3.15,0,0,0,.56,2,1.66,1.66,0,0,0,1.28.58,2,2,0,0,0,1.16-.29,4.48,4.48,0,0,0,.81-.76l1.54.95a3.67,3.67,0,0,1-1.52,1.38,5.16,5.16,0,0,1-2.19.43,3.79,3.79,0,0,1-1.55-.33,3.32,3.32,0,0,1-1.18-.92,4.38,4.38,0,0,1-.74-1.44,6.86,6.86,0,0,1,0-3.81,4,4,0,0,1,.77-1.44,3.19,3.19,0,0,1,1.2-.92,3.91,3.91,0,0,1,1.62-.32,3.3,3.3,0,0,1,2.66,1.22,4.15,4.15,0,0,1,.72,1.3,5.37,5.37,0,0,1,.23,1.54v.87Zm3.4-1.43a2.22,2.22,0,0,0-.48-1.42,1.71,1.71,0,0,0-2.41,0l0,0a2.29,2.29,0,0,0-.49,1.42Zm-13.29-3.33h2.11l1.46,6h0l1.5-6h2.11l-2.53,8.84h-2.21Zm-1.48,8.85h-2.1v-8.85h2.1Zm-2.1-12.47h2.1v2h-2.1Zm-9.67,12.47v-8.85h1.93v.95a10.93,10.93,0,0,1,1.27-.76,3.08,3.08,0,0,1,1.45-.36,2.4,2.4,0,0,1,2,.8,3.34,3.34,0,0,1,.64,2.16v6.06h-2.11v-5.76a2,2,0,0,0-.27-1.23,1,1,0,0,0-.82-.33,2.17,2.17,0,0,0-1.19.31,3.61,3.61,0,0,0-.78.62v6.39Zm-4.87-12.29H221V612a6,6,0,0,1-.38,2.25,3.86,3.86,0,0,1-1,1.47,4.07,4.07,0,0,1-1.51.8,6.93,6.93,0,0,1-3.56,0,4,4,0,0,1-1.5-.8,3.8,3.8,0,0,1-1-1.47,5.62,5.62,0,0,1-.38-2.25v-7.69h2.34v7.79a2.41,2.41,0,1,0,4.74,0Z" class="cls-2"/><rect height="36.54" width="0.38" y="601.51" x="198.54" class="cls-2"/></svg>